<svg width="23" height="24" viewBox="0 0 23 24" fill="none" xmlns="http://www.w3.org/2000/svg">
<path d="M1.06941 7.15022C1.12203 6.00047 1.30205 5.25895 1.54551 4.62952L1.54879 4.62083C1.79004 3.98032 2.16799 3.40009 2.6563 2.9205L2.66316 2.91377L2.66988 2.90692C3.14986 2.41797 3.73031 2.0404 4.37025 1.79979L4.38129 1.79557C5.00929 1.55134 5.74936 1.37198 6.90006 1.31938M1.06941 7.15022C1.0141 8.37866 1 8.75946 1 11.9446C1 15.1304 1.01332 15.5103 1.06938 16.739M1.06941 7.15022V7.46009M6.90006 1.31938C8.1288 1.26332 8.50946 1.25 11.6945 1.25C14.8796 1.25 15.2601 1.26409 16.4885 1.31939M6.90006 1.31938H7.21073M1.06938 16.739C1.12198 17.8898 1.30134 18.6298 1.54557 19.2578L1.54979 19.2689M1.06938 16.739L1.08822 16.8382M1.06938 16.739V16.4284M1.06941 7.46009C1.07371 7.36164 1.07834 7.25902 1.08331 7.14988C1.14096 5.89191 1.35481 5.1569 1.55865 4.63557C1.82247 3.95475 2.15665 3.441 2.66719 2.92834C3.15247 2.43053 3.74241 2.04692 4.39425 1.80528C4.91327 1.60397 5.64633 1.39076 6.89956 1.33332C7.00904 1.32834 7.11198 1.3237 7.21073 1.31938M1.06941 7.46009C1.02388 8.50112 1.0141 9.0754 1.0141 11.9446C1.0141 14.8128 1.02388 15.3879 1.06938 16.4284M1.06941 7.46009L1.06938 16.4284M1.54979 19.2689C1.7904 19.9088 2.16797 20.4892 2.65692 20.9692L2.66376 20.976L2.67048 20.9827C3.15009 21.4711 3.73034 21.8491 4.37085 22.0903L4.38041 22.0939C5.00898 22.3377 5.74941 22.5171 6.90006 22.5698M1.54979 19.2689L1.53537 19.1928M1.53537 19.1928L1.08822 16.8382M1.53537 19.1928C1.34545 18.6912 1.14991 17.9911 1.08822 16.8382M1.53537 19.1928C1.54203 19.2105 1.54867 19.2278 1.55532 19.2449C1.79615 19.8942 2.17774 20.4821 2.67267 20.9663C3.15675 21.4612 3.7444 21.8427 4.39344 22.0835C4.91429 22.2864 5.64822 22.4984 6.89988 22.5558C8.16302 22.6133 8.55327 22.625 11.6945 22.625C14.8358 22.625 15.2264 22.6133 16.4896 22.5558C17.7427 22.4983 18.4758 22.2851 18.9949 22.0839C19.6442 21.8431 20.2322 21.4614 20.7164 20.9663C21.2112 20.4822 21.5927 19.8946 21.8336 19.2456C22.0364 18.7247 22.2485 17.9909 22.3057 16.7392C22.3632 15.4761 22.375 15.085 22.375 11.9446C22.375 8.80406 22.3632 8.41269 22.3057 7.14956C22.248 5.8898 22.0329 5.15564 21.8306 4.63616C21.5663 3.95362 21.231 3.43742 20.7157 2.92205C20.2013 2.40874 19.6865 2.07326 19.0034 1.80861C18.4821 1.60479 17.7475 1.39097 16.4896 1.33332C16.3801 1.32834 16.2773 1.32371 16.1786 1.31939M1.08822 16.8382C1.08648 16.8057 1.08485 16.7729 1.08332 16.7396C1.07834 16.6301 1.0737 16.5272 1.06938 16.4284M16.1786 1.31939H16.4885M16.1786 1.31939L7.21073 1.31938M16.1786 1.31939C15.138 1.2739 14.563 1.2641 11.6945 1.2641C8.82628 1.2641 8.2512 1.27388 7.21073 1.31938M16.4885 1.31939C17.6384 1.372 18.38 1.55199 19.0096 1.79548L19.0183 1.79879C19.6587 2.04004 20.239 2.41799 20.7186 2.9063L20.7252 2.91309L20.7321 2.91975C21.2204 3.39937 21.5983 3.97977 21.8394 4.62045L21.8435 4.63129C22.0877 5.25929 22.2671 5.99936 22.3197 7.15006M22.3197 16.739C22.2671 17.8896 22.0877 18.6301 21.8439 19.2587L21.8403 19.2682C21.599 19.9088 21.2211 20.489 20.7328 20.9685L20.7259 20.9753L20.7193 20.9822C20.2392 21.4711 19.6588 21.8486 19.0188 22.0893L19.0078 22.0935C18.3798 22.3378 17.6397 22.5171 16.489 22.5698M9.79247 16.5366C10.3955 16.7864 11.0418 16.9149 11.6945 16.9149C13.0128 16.9149 14.2771 16.3913 15.2092 15.4592C16.1413 14.527 16.665 13.2627 16.665 11.9446C16.665 10.6263 16.1413 9.36206 15.2092 8.42992C14.2771 7.49779 13.0128 6.97411 11.6945 6.97411C11.0418 6.97411 10.3955 7.10268 9.79247 7.35247C9.18936 7.60226 8.64147 7.96838 8.17993 8.42992C7.71839 8.89147 7.35227 9.4394 7.10247 10.0424C6.85269 10.6454 6.72412 11.2919 6.72412 11.9446C6.72412 12.5973 6.85269 13.2436 7.10247 13.8466C7.35227 14.4497 7.71839 14.9976 8.17993 15.4592C8.64147 15.9207 9.18936 16.2869 9.79247 16.5366ZM8.16886 8.41885C9.10397 7.48377 10.3722 6.95845 11.6945 6.95845C13.0169 6.95845 14.2852 7.48377 15.2203 8.41885C16.1554 9.35393 16.6806 10.6221 16.6806 11.9446C16.6806 13.2669 16.1554 14.5351 15.2203 15.4702C14.2852 16.4053 13.0169 16.9306 11.6945 16.9306C10.3722 16.9306 9.10397 16.4053 8.16886 15.4702C7.23378 14.5351 6.70846 13.2669 6.70846 11.9446C6.70846 10.6221 7.23378 9.35393 8.16886 8.41885ZM19.4883 5.79758C19.4883 6.17607 19.3379 6.53906 19.0703 6.8067C18.8027 7.07434 18.4397 7.22469 18.0612 7.22469C17.6827 7.22469 17.3197 7.07434 17.0521 6.8067C16.7845 6.53906 16.634 6.17607 16.634 5.79758C16.634 5.41908 16.7845 5.05609 17.0521 4.78846C17.3197 4.52082 17.6827 4.37047 18.0612 4.37047C18.4397 4.37047 18.8027 4.52082 19.0703 4.78846C19.3379 5.05609 19.4883 5.41908 19.4883 5.79758Z" stroke="#1C274C" stroke-linejoin="round"/>
</svg>
